<?xml version="1.0" encoding="UTF-8" standalone="no"?>
<!DOCTYPE svg PUBLIC "-//W3C//DTD SVG 1.1//EN"
 "http://www.w3.org/Graphics/SVG/1.1/DTD/svg11.dtd">
<!-- Generated by graphviz version 13.1.0 (20250701.0955)
 -->
<!-- Title: G Pages: 1 -->
<svg width="617pt" height="616pt"
 viewBox="11.00 11.00 606.00 605.00" xmlns="http://www.w3.org/2000/svg" xmlns:xlink="http://www.w3.org/1999/xlink">
<g id="graph0" class="graph" transform="scale(0.736158 0.736158) rotate(0) translate(18.67 817.92)">
<title>G</title>
<polygon fill="white" stroke="none" points="-4,4 -4,-803.25 804.25,-803.25 804.25,4 -4,4"/>
<text xml:space="preserve" text-anchor="middle" x="400.12" y="-776.25" font-family="Helvetica,sans-Serif" font-size="20.00">Stock Analysis — End&#45;to&#45;End Flow</text>
<g id="clust2" class="cluster">
<title>cluster_ind</title>
<path fill="#f0fdf4" stroke="#86efac" d="M378,-514.25C378,-514.25 640,-514.25 640,-514.25 646,-514.25 652,-520.25 652,-526.25 652,-526.25 652,-561.25 652,-561.25 652,-567.25 646,-573.25 640,-573.25 640,-573.25 378,-573.25 378,-573.25 372,-573.25 366,-567.25 366,-561.25 366,-561.25 366,-526.25 366,-526.25 366,-520.25 372,-514.25 378,-514.25"/>
<text xml:space="preserve" text-anchor="middle" x="509" y="-556.9" font-family="Helvetica,sans-Serif" font-size="13.00">Technical Indicators</text>
</g>
<g id="clust3" class="cluster">
<title>cluster_alloc</title>
<path fill="#eff6ff" stroke="#93c5fd" d="M20,-152C20,-152 246,-152 246,-152 252,-152 258,-158 258,-164 258,-164 258,-343.75 258,-343.75 258,-349.75 252,-355.75 246,-355.75 246,-355.75 20,-355.75 20,-355.75 14,-355.75 8,-349.75 8,-343.75 8,-343.75 8,-164 8,-164 8,-158 14,-152 20,-152"/>
<text xml:space="preserve" text-anchor="middle" x="133" y="-339.4" font-family="Helvetica,sans-Serif" font-size="13.00">Allocation Logic</text>
</g>
<g id="clust4" class="cluster">
<title>cluster_bt</title>
<path fill="#fffbeb" stroke="#facc15" d="M270,-8C270,-8 422,-8 422,-8 428,-8 434,-14 434,-20 434,-20 434,-271.25 434,-271.25 434,-277.25 428,-283.25 422,-283.25 422,-283.25 270,-283.25 270,-283.25 264,-283.25 258,-277.25 258,-271.25 258,-271.25 258,-20 258,-20 258,-14 264,-8 270,-8"/>
<text xml:space="preserve" text-anchor="middle" x="346" y="-266.9" font-family="Helvetica,sans-Serif" font-size="13.00">Backtesting Rules</text>
</g>
<!-- A -->
<g id="node1" class="node">
<title>A</title>
<path fill="#eef2ff" stroke="#1f2937" stroke-width="1.2" d="M470.38,-768C470.38,-768 279.62,-768 279.62,-768 273.62,-768 267.62,-762 267.62,-756 267.62,-756 267.62,-743.5 267.62,-743.5 267.62,-737.5 273.62,-731.5 279.62,-731.5 279.62,-731.5 470.38,-731.5 470.38,-731.5 476.38,-731.5 482.38,-737.5 482.38,-743.5 482.38,-743.5 482.38,-756 482.38,-756 482.38,-762 476.38,-768 470.38,-768"/>
<text xml:space="preserve" text-anchor="middle" x="375" y="-752.6" font-family="Helvetica,sans-Serif" font-size="12.00">Input Data</text>
<text xml:space="preserve" text-anchor="middle" x="375" y="-738.35" font-family="Helvetica,sans-Serif" font-size="12.00">Concatenated OHLC (multiple scrips)</text>
</g>
<!-- B -->
<g id="node2" class="node">
<title>B</title>
<path fill="#e0f2fe" stroke="#1f2937" stroke-width="1.2" d="M413.75,-695.5C413.75,-695.5 336.25,-695.5 336.25,-695.5 330.25,-695.5 324.25,-689.5 324.25,-683.5 324.25,-683.5 324.25,-671 324.25,-671 324.25,-665 330.25,-659 336.25,-659 336.25,-659 413.75,-659 413.75,-659 419.75,-659 425.75,-665 425.75,-671 425.75,-671 425.75,-683.5 425.75,-683.5 425.75,-689.5 419.75,-695.5 413.75,-695.5"/>
<text xml:space="preserve" text-anchor="middle" x="375" y="-680.1" font-family="Helvetica,sans-Serif" font-size="12.00">scrip_extractor()</text>
<text xml:space="preserve" text-anchor="middle" x="375" y="-665.85" font-family="Helvetica,sans-Serif" font-size="12.00">Split per scrip</text>
</g>
<!-- A&#45;&gt;B -->
<g id="edge1" class="edge">
<title>A&#45;&gt;B</title>
<path fill="none" stroke="#4b5563" stroke-width="1.1" d="M375,-730.96C375,-722.88 375,-713.17 375,-704.3"/>
<polygon fill="#4b5563" stroke="#4b5563" stroke-width="1.1" points="377.45,-704.46 375,-697.46 372.55,-704.46 377.45,-704.46"/>
</g>
<!-- C -->
<g id="node3" class="node">
<title>C</title>
<path fill="#dcfce7" stroke="#1f2937" stroke-width="1.2" d="M443.38,-623C443.38,-623 306.62,-623 306.62,-623 300.62,-623 294.62,-617 294.62,-611 294.62,-611 294.62,-598.5 294.62,-598.5 294.62,-592.5 300.62,-586.5 306.62,-586.5 306.62,-586.5 443.38,-586.5 443.38,-586.5 449.38,-586.5 455.38,-592.5 455.38,-598.5 455.38,-598.5 455.38,-611 455.38,-611 455.38,-617 449.38,-623 443.38,-623"/>
<text xml:space="preserve" text-anchor="middle" x="375" y="-607.6" font-family="Helvetica,sans-Serif" font-size="12.00">compute_indicators_helper</text>
<text xml:space="preserve" text-anchor="middle" x="375" y="-593.35" font-family="Helvetica,sans-Serif" font-size="12.00">Add technical indicators</text>
</g>
<!-- B&#45;&gt;C -->
<g id="edge2" class="edge">
<title>B&#45;&gt;C</title>
<path fill="none" stroke="#4b5563" stroke-width="1.1" d="M375,-658.46C375,-650.38 375,-640.67 375,-631.8"/>
<polygon fill="#4b5563" stroke="#4b5563" stroke-width="1.1" points="377.45,-631.96 375,-624.96 372.55,-631.96 377.45,-631.96"/>
</g>
<!-- D -->
<g id="node4" class="node">
<title>D</title>
<path fill="#fef9c3" stroke="#1f2937" stroke-width="1.2" d="M328.75,-550.5C328.75,-550.5 155.25,-550.5 155.25,-550.5 149.25,-550.5 143.25,-544.5 143.25,-538.5 143.25,-538.5 143.25,-526 143.25,-526 143.25,-520 149.25,-514 155.25,-514 155.25,-514 328.75,-514 328.75,-514 334.75,-514 340.75,-520 340.75,-526 340.75,-526 340.75,-538.5 340.75,-538.5 340.75,-544.5 334.75,-550.5 328.75,-550.5"/>
<text xml:space="preserve" text-anchor="middle" x="242" y="-535.1" font-family="Helvetica,sans-Serif" font-size="12.00">updated_filters (ACTIVE_FILTER)</text>
<text xml:space="preserve" text-anchor="middle" x="242" y="-520.85" font-family="Helvetica,sans-Serif" font-size="12.00">Buy/Sell Signals</text>
</g>
<!-- C&#45;&gt;D -->
<g id="edge3" class="edge">
<title>C&#45;&gt;D</title>
<path fill="none" stroke="#4b5563" stroke-width="1.1" d="M341.44,-585.96C323.64,-576.53 301.63,-564.86 282.84,-554.9"/>
<polygon fill="#4b5563" stroke="#4b5563" stroke-width="1.1" points="284.35,-552.93 277.02,-551.81 282.06,-557.26 284.35,-552.93"/>
</g>
<!-- Ic -->
<g id="node11" class="node">
<title>Ic</title>
<path fill="white" stroke="#16a34a" stroke-width="1.2" d="M640.38,-550.25C640.38,-550.25 377.62,-550.25 377.62,-550.25 371.62,-550.25 365.62,-544.25 365.62,-538.25 365.62,-538.25 365.62,-526.25 365.62,-526.25 365.62,-520.25 371.62,-514.25 377.62,-514.25 377.62,-514.25 640.38,-514.25 640.38,-514.25 646.38,-514.25 652.38,-520.25 652.38,-526.25 652.38,-526.25 652.38,-538.25 652.38,-538.25 652.38,-544.25 646.38,-550.25 640.38,-550.25"/>
<text xml:space="preserve" text-anchor="middle" x="509" y="-535.3" font-family="Helvetica,sans-Serif" font-size="11.00">EMA(9…200) · RSI · MACD · BB · ROC</text>
<text xml:space="preserve" text-anchor="middle" x="509" y="-521.8" font-family="Helvetica,sans-Serif" font-size="11.00">60&#45;day High/Low · VWAP · ADX/±DI · ATR · Supertrend</text>
</g>
<!-- C&#45;&gt;Ic -->
<g id="edge10" class="edge">
<title>C&#45;&gt;Ic</title>
<path fill="none" stroke="#16a34a" stroke-width="1.1" d="M408.81,-585.96C426.8,-576.5 449.06,-564.78 468.03,-554.81"/>
<polygon fill="#16a34a" stroke="#16a34a" stroke-width="1.1" points="469.13,-556.99 474.19,-551.57 466.85,-552.66 469.13,-556.99"/>
</g>
<!-- E -->
<g id="node5" class="node">
<title>E</title>
<path fill="#ffedd5" stroke="#1f2937" stroke-width="1.2" d="M275.5,-478C275.5,-478 208.5,-478 208.5,-478 202.5,-478 196.5,-472 196.5,-466 196.5,-466 196.5,-453.5 196.5,-453.5 196.5,-447.5 202.5,-441.5 208.5,-441.5 208.5,-441.5 275.5,-441.5 275.5,-441.5 281.5,-441.5 287.5,-447.5 287.5,-453.5 287.5,-453.5 287.5,-466 287.5,-466 287.5,-472 281.5,-478 275.5,-478"/>
<text xml:space="preserve" text-anchor="middle" x="242" y="-462.6" font-family="Helvetica,sans-Serif" font-size="12.00">Screening</text>
<text xml:space="preserve" text-anchor="middle" x="242" y="-448.35" font-family="Helvetica,sans-Serif" font-size="12.00">Eligible scrips</text>
</g>
<!-- D&#45;&gt;E -->
<g id="edge4" class="edge">
<title>D&#45;&gt;E</title>
<path fill="none" stroke="#4b5563" stroke-width="1.1" d="M242,-513.46C242,-505.38 242,-495.67 242,-486.8"/>
<polygon fill="#4b5563" stroke="#4b5563" stroke-width="1.1" points="244.45,-486.96 242,-479.96 239.55,-486.96 244.45,-486.96"/>
</g>
<!-- F -->
<g id="node6" class="node">
<title>F</title>
<path fill="#dbeafe" stroke="#1f2937" stroke-width="1.2" d="M328,-405.5C328,-405.5 156,-405.5 156,-405.5 150,-405.5 144,-399.5 144,-393.5 144,-393.5 144,-381 144,-381 144,-375 150,-369 156,-369 156,-369 328,-369 328,-369 334,-369 340,-375 340,-381 340,-381 340,-393.5 340,-393.5 340,-399.5 334,-405.5 328,-405.5"/>
<text xml:space="preserve" text-anchor="middle" x="242" y="-390.1" font-family="Helvetica,sans-Serif" font-size="12.00">Portfolio Allocation</text>
<text xml:space="preserve" text-anchor="middle" x="242" y="-375.85" font-family="Helvetica,sans-Serif" font-size="12.00">Scores → Weights → ₹ Allocation</text>
</g>
<!-- E&#45;&gt;F -->
<g id="edge5" class="edge">
<title>E&#45;&gt;F</title>
<path fill="none" stroke="#4b5563" stroke-width="1.1" d="M242,-440.96C242,-432.88 242,-423.17 242,-414.3"/>
<polygon fill="#4b5563" stroke="#4b5563" stroke-width="1.1" points="244.45,-414.46 242,-407.46 239.55,-414.46 244.45,-414.46"/>
</g>
<!-- G -->
<g id="node7" class="node">
<title>G</title>
<path fill="#fde68a" stroke="#1f2937" stroke-width="1.2" d="M408.75,-333C408.75,-333 295.25,-333 295.25,-333 289.25,-333 283.25,-327 283.25,-321 283.25,-321 283.25,-308.5 283.25,-308.5 283.25,-302.5 289.25,-296.5 295.25,-296.5 295.25,-296.5 408.75,-296.5 408.75,-296.5 414.75,-296.5 420.75,-302.5 420.75,-308.5 420.75,-308.5 420.75,-321 420.75,-321 420.75,-327 414.75,-333 408.75,-333"/>
<text xml:space="preserve" text-anchor="middle" x="352" y="-317.6" font-family="Helvetica,sans-Serif" font-size="12.00">Backtesting</text>
<text xml:space="preserve" text-anchor="middle" x="352" y="-303.35" font-family="Helvetica,sans-Serif" font-size="12.00">Rules + Fees + Ledger</text>
</g>
<!-- F&#45;&gt;G -->
<g id="edge6" class="edge">
<title>F&#45;&gt;G</title>
<path fill="none" stroke="#4b5563" stroke-width="1.1" d="M269.76,-368.46C284.09,-359.28 301.72,-347.98 316.98,-338.2"/>
<polygon fill="#4b5563" stroke="#4b5563" stroke-width="1.1" points="318.28,-340.27 322.85,-334.43 315.63,-336.15 318.28,-340.27"/>
</g>
<!-- A1 -->
<g id="node12" class="node">
<title>A1</title>
<path fill="white" stroke="#2563eb" stroke-width="1.2" d="M246.38,-332.75C246.38,-332.75 19.62,-332.75 19.62,-332.75 13.62,-332.75 7.62,-326.75 7.62,-320.75 7.62,-320.75 7.62,-308.75 7.62,-308.75 7.62,-302.75 13.62,-296.75 19.62,-296.75 19.62,-296.75 246.38,-296.75 246.38,-296.75 252.38,-296.75 258.38,-302.75 258.38,-308.75 258.38,-308.75 258.38,-320.75 258.38,-320.75 258.38,-326.75 252.38,-332.75 246.38,-332.75"/>
<text xml:space="preserve" text-anchor="middle" x="133" y="-317.8" font-family="Helvetica,sans-Serif" font-size="11.00">Score = Tech (RSI/MACD/SMA) + Signal Quality</text>
<text xml:space="preserve" text-anchor="middle" x="133" y="-304.3" font-family="Helvetica,sans-Serif" font-size="11.00">+ Momentum + (Low) Volatility</text>
</g>
<!-- F&#45;&gt;A1 -->
<g id="edge13" class="edge">
<title>F&#45;&gt;A1</title>
<path fill="none" stroke="#2563eb" stroke-width="1.1" d="M214.49,-368.46C200.19,-359.21 182.56,-347.8 167.36,-337.97"/>
<polygon fill="#2563eb" stroke="#2563eb" stroke-width="1.1" points="168.73,-335.94 161.52,-334.19 166.06,-340.05 168.73,-335.94"/>
</g>
<!-- H -->
<g id="node8" class="node">
<title>H</title>
<path fill="#f1f5f9" stroke="#1f2937" stroke-width="1.2" d="M597.38,-260.5C597.38,-260.5 496.62,-260.5 496.62,-260.5 490.62,-260.5 484.62,-254.5 484.62,-248.5 484.62,-248.5 484.62,-236 484.62,-236 484.62,-230 490.62,-224 496.62,-224 496.62,-224 597.38,-224 597.38,-224 603.38,-224 609.38,-230 609.38,-236 609.38,-236 609.38,-248.5 609.38,-248.5 609.38,-254.5 603.38,-260.5 597.38,-260.5"/>
<text xml:space="preserve" text-anchor="middle" x="547" y="-245.1" font-family="Helvetica,sans-Serif" font-size="12.00">Aggregate Portfolio</text>
<text xml:space="preserve" text-anchor="middle" x="547" y="-230.85" font-family="Helvetica,sans-Serif" font-size="12.00">Cash · P&amp;L · Metrics</text>
</g>
<!-- G&#45;&gt;H -->
<g id="edge7" class="edge">
<title>G&#45;&gt;H</title>
<path fill="none" stroke="#4b5563" stroke-width="1.1" d="M403.72,-296.06C415.66,-291.91 428.29,-287.47 440,-283.25 457,-277.13 475.45,-270.3 492.16,-264.04"/>
<polygon fill="#4b5563" stroke="#4b5563" stroke-width="1.1" points="492.96,-266.36 498.66,-261.6 491.24,-261.77 492.96,-266.36"/>
</g>
<!-- B1 -->
<g id="node15" class="node">
<title>B1</title>
<path fill="white" stroke="#d97706" stroke-width="1.2" d="M422.25,-260.25C422.25,-260.25 269.75,-260.25 269.75,-260.25 263.75,-260.25 257.75,-254.25 257.75,-248.25 257.75,-248.25 257.75,-236.25 257.75,-236.25 257.75,-230.25 263.75,-224.25 269.75,-224.25 269.75,-224.25 422.25,-224.25 422.25,-224.25 428.25,-224.25 434.25,-230.25 434.25,-236.25 434.25,-236.25 434.25,-248.25 434.25,-248.25 434.25,-254.25 428.25,-260.25 422.25,-260.25"/>
<text xml:space="preserve" text-anchor="middle" x="346" y="-238.55" font-family="Helvetica,sans-Serif" font-size="11.00">Entry: Buy when Buy&#45;signal &amp; flat</text>
</g>
<!-- G&#45;&gt;B1 -->
<g id="edge17" class="edge">
<title>G&#45;&gt;B1</title>
<path fill="none" stroke="#d97706" stroke-width="1.1" d="M350.49,-295.96C349.8,-287.88 348.97,-278.17 348.22,-269.3"/>
<polygon fill="#d97706" stroke="#d97706" stroke-width="1.1" points="350.67,-269.22 347.63,-262.45 345.79,-269.63 350.67,-269.22"/>
</g>
<!-- I -->
<g id="node9" class="node">
<title>I</title>
<path fill="#e2e8f0" stroke="#1f2937" stroke-width="1.2" d="M622.88,-188C622.88,-188 471.12,-188 471.12,-188 465.12,-188 459.12,-182 459.12,-176 459.12,-176 459.12,-164 459.12,-164 459.12,-158 465.12,-152 471.12,-152 471.12,-152 622.88,-152 622.88,-152 628.88,-152 634.88,-158 634.88,-164 634.88,-164 634.88,-176 634.88,-176 634.88,-182 628.88,-188 622.88,-188"/>
<text xml:space="preserve" text-anchor="middle" x="547" y="-165.72" font-family="Helvetica,sans-Serif" font-size="12.00">Dashboard (Streamlit + Plotly)</text>
</g>
<!-- H&#45;&gt;I -->
<g id="edge8" class="edge">
<title>H&#45;&gt;I</title>
<path fill="none" stroke="#4b5563" stroke-width="1.1" d="M547,-223.52C547,-215.47 547,-205.8 547,-196.95"/>
<polygon fill="#4b5563" stroke="#4b5563" stroke-width="1.1" points="549.45,-197.14 547,-190.14 544.55,-197.14 549.45,-197.14"/>
</g>
<!-- J -->
<g id="node10" class="node">
<title>J</title>
<path fill="#e2e8f0" stroke="#1f2937" stroke-width="1.2" d="M788.25,-188C788.25,-188 671.75,-188 671.75,-188 665.75,-188 659.75,-182 659.75,-176 659.75,-176 659.75,-164 659.75,-164 659.75,-158 665.75,-152 671.75,-152 671.75,-152 788.25,-152 788.25,-152 794.25,-152 800.25,-158 800.25,-164 800.25,-164 800.25,-176 800.25,-176 800.25,-182 794.25,-188 788.25,-188"/>
<text xml:space="preserve" text-anchor="middle" x="730" y="-165.72" font-family="Helvetica,sans-Serif" font-size="12.00">Reports (Excel / HTML)</text>
</g>
<!-- H&#45;&gt;J -->
<g id="edge9" class="edge">
<title>H&#45;&gt;J</title>
<path fill="none" stroke="#4b5563" stroke-width="1.1" d="M593.18,-223.52C618.42,-213.84 649.81,-201.79 676.15,-191.67"/>
<polygon fill="#4b5563" stroke="#4b5563" stroke-width="1.1" points="676.94,-193.99 682.6,-189.2 675.19,-189.42 676.94,-193.99"/>
</g>
<!-- A2 -->
<g id="node13" class="node">
<title>A2</title>
<path fill="white" stroke="#2563eb" stroke-width="1.2" d="M216.38,-260.25C216.38,-260.25 49.62,-260.25 49.62,-260.25 43.62,-260.25 37.62,-254.25 37.62,-248.25 37.62,-248.25 37.62,-236.25 37.62,-236.25 37.62,-230.25 43.62,-224.25 49.62,-224.25 49.62,-224.25 216.38,-224.25 216.38,-224.25 222.38,-224.25 228.38,-230.25 228.38,-236.25 228.38,-236.25 228.38,-248.25 228.38,-248.25 228.38,-254.25 222.38,-260.25 216.38,-260.25"/>
<text xml:space="preserve" text-anchor="middle" x="133" y="-238.55" font-family="Helvetica,sans-Serif" font-size="11.00">Rank → Exponential Decay Weights</text>
</g>
<!-- A1&#45;&gt;A2 -->
<g id="edge11" class="edge">
<title>A1&#45;&gt;A2</title>
<path fill="none" stroke="#2563eb" stroke-width="1.1" d="M133,-296.32C133,-288.13 133,-278.19 133,-269.13"/>
<polygon fill="#2563eb" stroke="#2563eb" stroke-width="1.1" points="135.45,-269.14 133,-262.14 130.55,-269.14 135.45,-269.14"/>
</g>
<!-- A3 -->
<g id="node14" class="node">
<title>A3</title>
<path fill="white" stroke="#2563eb" stroke-width="1.2" d="M199.88,-188C199.88,-188 66.12,-188 66.12,-188 60.12,-188 54.12,-182 54.12,-176 54.12,-176 54.12,-164 54.12,-164 54.12,-158 60.12,-152 66.12,-152 66.12,-152 199.88,-152 199.88,-152 205.88,-152 211.88,-158 211.88,-164 211.88,-164 211.88,-176 211.88,-176 211.88,-182 205.88,-188 199.88,-188"/>
<text xml:space="preserve" text-anchor="middle" x="133" y="-173.05" font-family="Helvetica,sans-Serif" font-size="11.00">Clamp per&#45;position (min/max)</text>
<text xml:space="preserve" text-anchor="middle" x="133" y="-159.55" font-family="Helvetica,sans-Serif" font-size="11.00">Normalize → 100%</text>
</g>
<!-- A2&#45;&gt;A3 -->
<g id="edge12" class="edge">
<title>A2&#45;&gt;A3</title>
<path fill="none" stroke="#2563eb" stroke-width="1.1" d="M133,-223.88C133,-215.72 133,-205.81 133,-196.79"/>
<polygon fill="#2563eb" stroke="#2563eb" stroke-width="1.1" points="135.45,-196.83 133,-189.83 130.55,-196.83 135.45,-196.83"/>
</g>
<!-- B2 -->
<g id="node16" class="node">
<title>B2</title>
<path fill="white" stroke="#d97706" stroke-width="1.2" d="M421.88,-188C421.88,-188 270.12,-188 270.12,-188 264.12,-188 258.12,-182 258.12,-176 258.12,-176 258.12,-164 258.12,-164 258.12,-158 264.12,-152 270.12,-152 270.12,-152 421.88,-152 421.88,-152 427.88,-152 433.88,-158 433.88,-164 433.88,-164 433.88,-176 433.88,-176 433.88,-182 427.88,-188 421.88,-188"/>
<text xml:space="preserve" text-anchor="middle" x="346" y="-173.05" font-family="Helvetica,sans-Serif" font-size="11.00">Exit: Sell when Sell&#45;signal &amp;</text>
<text xml:space="preserve" text-anchor="middle" x="346" y="-159.55" font-family="Helvetica,sans-Serif" font-size="11.00">(min holding days &amp; min profit hit)</text>
</g>
<!-- B1&#45;&gt;B2 -->
<g id="edge14" class="edge">
<title>B1&#45;&gt;B2</title>
<path fill="none" stroke="#d97706" stroke-width="1.1" d="M346,-223.88C346,-215.72 346,-205.81 346,-196.79"/>
<polygon fill="#d97706" stroke="#d97706" stroke-width="1.1" points="348.45,-196.83 346,-189.83 343.55,-196.83 348.45,-196.83"/>
</g>
<!-- B3 -->
<g id="node17" class="node">
<title>B3</title>
<path fill="white" stroke="#d97706" stroke-width="1.2" d="M378.75,-116C378.75,-116 313.25,-116 313.25,-116 307.25,-116 301.25,-110 301.25,-104 301.25,-104 301.25,-92 301.25,-92 301.25,-86 307.25,-80 313.25,-80 313.25,-80 378.75,-80 378.75,-80 384.75,-80 390.75,-86 390.75,-92 390.75,-92 390.75,-104 390.75,-104 390.75,-110 384.75,-116 378.75,-116"/>
<text xml:space="preserve" text-anchor="middle" x="346" y="-94.3" font-family="Helvetica,sans-Serif" font-size="11.00">Brokerage fees</text>
</g>
<!-- B2&#45;&gt;B3 -->
<g id="edge15" class="edge">
<title>B2&#45;&gt;B3</title>
<path fill="none" stroke="#d97706" stroke-width="1.1" d="M346,-151.7C346,-143.68 346,-133.98 346,-125.1"/>
<polygon fill="#d97706" stroke="#d97706" stroke-width="1.1" points="348.45,-125.26 346,-118.26 343.55,-125.26 348.45,-125.26"/>
</g>
<!-- B4 -->
<g id="node18" class="node">
<title>B4</title>
<path fill="white" stroke="#d97706" stroke-width="1.2" d="M386.25,-44C386.25,-44 305.75,-44 305.75,-44 299.75,-44 293.75,-38 293.75,-32 293.75,-32 293.75,-20 293.75,-20 293.75,-14 299.75,-8 305.75,-8 305.75,-8 386.25,-8 386.25,-8 392.25,-8 398.25,-14 398.25,-20 398.25,-20 398.25,-32 398.25,-32 398.25,-38 392.25,-44 386.25,-44"/>
<text xml:space="preserve" text-anchor="middle" x="346" y="-22.3" font-family="Helvetica,sans-Serif" font-size="11.00">Transaction ledger</text>
</g>
<!-- B3&#45;&gt;B4 -->
<g id="edge16" class="edge">
<title>B3&#45;&gt;B4</title>
<path fill="none" stroke="#d97706" stroke-width="1.1" d="M346,-79.7C346,-71.68 346,-61.98 346,-53.1"/>
<polygon fill="#d97706" stroke="#d97706" stroke-width="1.1" points="348.45,-53.26 346,-46.26 343.55,-53.26 348.45,-53.26"/>
</g>
</g>
</svg>
